<svg id="Layer_1" data-name="Layer 1" xmlns="http://www.w3.org/2000/svg" viewBox="0 0 643.46 107.6">
    <defs>
        <style>.cls-1{fill:#2e5993;}.cls-2{fill:#c42079;}.cls-3{fill:#fff;}.cls-4{fill:#eaa623;}</style>
    </defs>
    <path class="cls-1"
        d="M145.4,224.66l-17.74-28.2h-9.59l-10.28,28.2H89.18l25.4-69.78h18.61L122.91,183h9.21l35.76-28.11h20.36l-44.68,36.35L165,224.66Z"
        transform="translate(-89.18 -153.43)" />
    <path class="cls-1"
        d="M202.19,224.76H183.58l10.28-28.2L177,177.73l13.42-11,16.11,16.47L239.22,155h21.61l-49.14,43.61Z"
        transform="translate(-89.18 -153.43)" />
    <path class="cls-2"
        d="M303.1,224.66l-17.74-28.2h-9.59l-10.28,28.2H246.88l25.4-69.78h18.61L280.61,183h9.21l35.76-28.11h20.36l-44.68,36.35,21.42,33.43Z"
        transform="translate(-89.18 -153.43)" />
    <path class="cls-2"
        d="M392.07,224.66l-.39-14.73h-34l-10.37,14.73H327.72l47-63.09a16.7,16.7,0,0,1,5-5.14,12.21,12.21,0,0,1,6.3-1.55H406.9l2.71,69.78Zm-.68-27.72-.77-33.53-23.75,33.53Z"
        transform="translate(-89.18 -153.43)" />
    <path class="cls-2"
        d="M470.87,224.66l-8.14-22.19H446.25l-8,22.19H419.6L445,154.88h31.5q18.79,0,25.25,7.27t1.69,20.45q-2.9,8.15-8.82,12.11t-15,5L490,224.66Zm.77-57.18H459l-8.14,22.39h12.8q10.37,0,14.87-1.84t6.64-7.66q2.63-6.88-.19-9.89C483.14,168.48,478.69,167.48,471.64,167.48Z"
        transform="translate(-89.18 -153.43)" />
    <path class="cls-2"
        d="M572,223.21q-10.28,2.91-26.07,2.91-22.39,0-31.26-11.1t-1.89-30a51.48,51.48,0,0,1,8.33-15.12,38.62,38.62,0,0,1,11.78-9.84,52.73,52.73,0,0,1,14-5.08,80,80,0,0,1,16.43-1.55,75.19,75.19,0,0,1,27.24,5L586,171.84a55,55,0,0,0-22.78-4.75q-25.68,0-33.14,21.62-8.34,24.12,19.87,24.13a76.11,76.11,0,0,0,8.14-.49L565,193.07h17.74Z"
        transform="translate(-89.18 -153.43)" />
    <path class="cls-2"
        d="M678.57,169.76a19.85,19.85,0,0,0-5.86-8.68,29.21,29.21,0,0,0-11.34-5.62,63.46,63.46,0,0,0-17.11-2q-18.6,0-29.8,7.56t-17.4,24.71a50.53,50.53,0,0,0-3,12.84,26.72,26.72,0,0,0,1.21,11.1,20.13,20.13,0,0,0,5.86,8.77,28.83,28.83,0,0,0,11.34,5.67,63.43,63.43,0,0,0,17.11,2q18.51,0,29.8-7.56t17.5-24.91a53.19,53.19,0,0,0,2.95-12.84A26.42,26.42,0,0,0,678.57,169.76Z"
        transform="translate(-89.18 -153.43)" />
    <path class="cls-3"
        d="M632.2,198.78l-9.46,8.66a.54.54,0,0,1-.58.11l-14-6.43a.11.11,0,0,1-.06-.15l0,0,43.23-38.82c.48-.42.68-.32.59.31l-7.5,55a.28.28,0,0,1-.32.24l-.08,0-13.6-6.28a.38.38,0,0,1-.21-.41l2.15-12.1C632.39,198.68,632.34,198.66,632.2,198.78Z"
        transform="translate(-89.18 -153.43)" />
    <path class="cls-4"
        d="M508,252.25a.49.49,0,0,1-.38-.47V238.86a.54.54,0,0,1,.54-.53l.16,0a264.89,264.89,0,0,0,86.88,13.23,188.73,188.73,0,0,0,52.51-8,143.23,143.23,0,0,0,15.46-5.69q44.88-19.59,69-63.13a.41.41,0,0,1,.38-.25q.25,0,0,.48Q705.23,229,649.31,249.47a191.9,191.9,0,0,1-56,11.13A281.61,281.61,0,0,1,508,252.25Z"
        transform="translate(-89.18 -153.43)" />
</svg>